<?xml version="1.0" standalone="no"?>
<!DOCTYPE svg PUBLIC "-//W3C//DTD SVG 20010904//EN"
 "http://www.w3.org/TR/2001/REC-SVG-20010904/DTD/svg10.dtd">
<svg version="1.0" xmlns="http://www.w3.org/2000/svg"
 width="300.000000pt" height="300.000000pt" viewBox="0 0 300.000000 300.000000"
 preserveAspectRatio="xMidYMid meet">
<metadata>
Created by potrace 1.11, written by Peter Selinger 2001-2013
</metadata>
<g transform="translate(0.000000,300.000000) scale(0.100000,-0.100000)"
fill="#000000" stroke="none">
<path d="M2739 2357 c-79 -57 -317 -226 -529 -377 -212 -150 -407 -290 -435
-310 -62 -46 -356 -253 -372 -263 -8 -5 -75 27 -165 79 -84 48 -173 98 -198
112 -25 14 -144 81 -265 150 -121 69 -235 133 -253 144 -249 140 -429 242
-438 249 -20 16 -21 -1 -8 -79 8 -42 48 -284 90 -537 41 -253 77 -473 80 -490
12 -70 55 -332 59 -355 14 -95 18 -116 24 -126 3 -6 209 134 501 343 272 194
512 365 532 379 l36 26 49 -27 c26 -15 129 -73 228 -130 99 -56 200 -113 225
-127 25 -14 144 -81 265 -150 121 -69 243 -138 270 -153 60 -33 104 -58 210
-119 56 -32 81 -42 86 -33 6 11 13 46 24 127 2 19 30 199 60 400 61 405 61
404 71 478 l7 52 -32 0 c-17 0 -34 0 -38 1 -5 0 -11 -17 -15 -38 -9 -51 -38
-240 -43 -278 -2 -16 -15 -109 -30 -205 -14 -96 -34 -228 -44 -292 -10 -65
-20 -120 -23 -124 -3 -3 -107 52 -229 122 -123 70 -244 138 -269 152 -25 14
-90 51 -145 82 -55 31 -121 69 -147 84 -27 14 -69 38 -95 53 -27 14 -64 35
-83 46 -19 10 -39 22 -45 27 -5 4 -41 24 -80 45 -38 21 -77 43 -86 49 -14 9
63 67 463 351 263 187 484 345 491 350 7 6 121 88 255 183 l242 173 -22 29
c-12 17 -25 30 -28 30 -4 0 -72 -46 -151 -103z"/>
</g>
</svg>
