<svg xmlns="http://www.w3.org/2000/svg" style="display: none;">

    <symbol id="icon-info" viewBox="0 0 512 512">
      <path d="m318 0c35 0 52 23 52 50 0 34-30 64-69 64-32 0-51-19-50-51 0-26 22-63 67-63z m-105 512c-27 0-47-17-28-90l31-131c5-20 6-29 0-29-8 0-43 15-64 29l-14-23c66-56 142-88 174-88 27 0 32 32 18 82l-35 137c-7 24-4 33 3 33 8 0 34-10 60-31l16 21c-64 65-134 90-161 90z"/>
    </symbol>

    <symbol id="icon-facebook" viewBox="0 0 512 512">
      <path d="m384 3l0 76-45 0c-17 0-28 3-33 10-6 7-9 17-9 31l0 54 84 0-11 85-73 0 0 216-87 0 0-216-73 0 0-85 73 0 0-62c0-36 10-63 29-83 20-19 47-29 80-29 28 0 49 1 65 3z"/>
    </symbol>

    <symbol id="icon-twitter" viewBox="0 0 512 512">
      <path d="m481 117c-13 18-28 34-46 47 0 3 0 7 0 12 0 25-3 50-11 74-7 25-18 49-33 71-14 23-32 43-52 61-21 17-45 31-74 41-29 11-60 16-92 16-52 0-99-14-142-42 7 1 14 2 22 2 43 0 81-14 115-40-20 0-38-6-54-18-16-12-27-27-33-46 7 1 13 2 18 2 8 0 16-1 24-4-21-4-39-15-53-31-14-17-21-37-21-59l0-1c13 7 27 11 42 11-13-8-23-19-30-32-8-14-11-29-11-44 0-17 4-33 12-47 23 28 51 51 84 68 33 17 69 27 107 29-2-8-3-15-3-22 0-25 9-47 27-65 18-18 40-27 66-27 26 0 49 10 67 29 21-4 40-11 59-22-7 22-21 39-41 51 18-2 35-7 53-14z"/>
    </symbol>

    <symbol id="icon-tumblr" viewBox="0 0 512 512">
      <path d="m379 380l23 67c-4 7-15 13-31 19-17 6-34 9-51 9-20 1-38-2-54-7-17-5-30-12-41-21-11-9-20-19-27-30-8-12-13-23-16-35-3-11-5-22-5-33l0-156-48 0 0-61c14-5 26-12 37-20 11-8 20-17 26-26 6-9 12-18 17-29 4-11 7-20 9-28 2-9 4-17 5-26 0-1 0-1 1-2 1-1 1-1 2-1l70 0 0 121 95 0 0 72-96 0 0 148c0 6 1 11 2 16 2 5 4 10 7 15 3 5 7 9 14 12 6 3 14 4 23 4 15 0 28-3 38-8z"/>
    </symbol>

    <symbol id="icon-camera" viewBox="0 0 512 512">
      <path d="m324 256c0 38-30 68-68 68-38 0-68-30-68-68 0-38 30-68 68-68 38 0 68 30 68 68z m-132-213l-38 42-69 0c-23 0-42 20-42 43l0 256c0 23 19 43 42 43l342 0c23 0 42-20 42-43l0-256c0-23-19-43-42-43l-69 0-38-42z m64 320c-60 0-107-47-107-107 0-60 47-107 107-107 60 0 107 47 107 107 0 60-47 107-107 107z"/>
    </symbol>

    <symbol id="icon-pencil" viewBox="0 0 512 512">
      <path d="m140 439l26-26-67-67-26 26 0 30 37 0 0 37z m150-265c0-4-2-7-7-7-1 0-3 1-4 2l-155 155c-2 2-2 3-2 5 0 4 2 6 6 6 2 0 4 0 5-2l155-154c1-2 2-3 2-5z m-16-55l119 119-238 237-118 0 0-118z m195 27c0 10-3 19-10 26l-48 47-118-118 47-48c7-7 15-10 26-10 10 0 18 3 26 10l67 67c7 8 10 16 10 26z"/>
    </symbol>

    <symbol id="icon-download" viewBox="0 0 512 512">
      <path d="m405 192l-85 0 0-128-128 0 0 128-85 0 149 149z m-298 192l0 43 298 0 0-43z"/>
    </symbol>

    <symbol id="icon-upload" viewBox="0 0 512 512">
      <path d="m192 341l128 0 0-128 85 0-149-149-149 149 85 0z m-85 43l298 0 0 43-298 0z"/>
    </symbol>

    <symbol id="icon-heart" viewBox="0 0 512 512">
      <path d="m256 475c-5 0-9-1-13-5l-178-172c-2-1-4-4-8-7-3-4-8-10-16-19-7-9-13-18-19-28-6-9-11-21-15-34-5-14-7-27-7-40 0-42 12-74 36-98 24-24 58-35 101-35 11 0 23 2 36 6 12 4 23 9 34 16 11 7 20 14 27 20 8 6 15 12 22 19 7-7 14-13 22-19 7-6 16-13 27-20 11-7 22-12 34-16 13-4 25-6 36-6 43 0 77 11 101 35 24 24 36 56 36 98 0 42-22 85-65 129l-178 171c-4 4-8 5-13 5z"/>
    </symbol>

    <symbol id="icon-heart-1" viewBox="0 0 512 512">
      <path d="m475 170c0-15-2-29-6-41-4-11-9-21-15-28-7-7-15-12-24-17-9-4-18-7-27-9-8-1-18-2-28-2-9 0-20 3-32 7-11 5-22 11-31 19-10 7-18 14-25 20-7 7-12 13-17 18-3 4-8 6-14 6-6 0-11-2-14-6-5-5-10-11-17-18-7-6-15-13-25-20-9-8-20-14-31-19-12-4-23-7-32-7-10 0-20 1-28 2-9 2-18 5-27 9-9 5-17 10-24 17-6 7-11 17-15 28-4 12-6 26-6 41 0 32 17 66 53 102l166 160 166-160c36-36 53-70 53-102z m37 0c0 42-22 85-65 129l-178 171c-4 4-8 5-13 5-5 0-9-1-13-5l-178-172c-2-1-4-4-8-7-3-4-8-10-16-19-7-9-13-18-19-28-6-9-11-21-15-34-5-14-7-27-7-40 0-42 12-74 36-98 24-24 58-35 101-35 11 0 23 2 36 6 12 4 23 9 34 16 11 7 20 14 27 20 8 6 15 12 22 19 7-7 14-13 22-19 7-6 16-13 27-20 11-7 22-12 34-16 13-4 25-6 36-6 43 0 77 11 101 35 24 24 36 56 36 98z"/>
    </symbol>

    <symbol id="icon-arrow" viewBox="0 0 512 512">
      <path d="m2 124c-1-1-1-1-1-2 0-1-1-3-1-5 0 0 0-1 0-1 0-3 0-5 1-7 1-2 2-4 3-5 0-1 83-98 83-98 6-8 17-8 23-1 7 8 7 20 0 27l-44 52c65-8 129 6 132 6 197 36 337 218 311 406-1 9-8 16-16 16-1 0-2 0-3 0-9-2-15-11-13-22 22-167-105-330-285-363-1 0-67-14-129-4l69 41c8 4 11 16 7 25-4 9-14 13-22 8l-108-64c-2-1-3-2-4-3-2-2-3-4-3-6z"/>
    </symbol>

</svg>
